<?xml version="1.0" standalone="no"?><!DOCTYPE svg PUBLIC "-//W3C//DTD SVG 1.1//EN" "http://www.w3.org/Graphics/SVG/1.1/DTD/svg11.dtd"><svg t="1652196111797" class="icon" viewBox="0 0 1024 1024" version="1.1" xmlns="http://www.w3.org/2000/svg" p-id="2815" xmlns:xlink="http://www.w3.org/1999/xlink" width="200" height="200"><defs><style type="text/css">@font-face { font-family: feedback-iconfont; src: url("//at.alicdn.com/t/font_1031158_u69w8yhxdu.woff2?t=1630033759944") format("woff2"), url("//at.alicdn.com/t/font_1031158_u69w8yhxdu.woff?t=1630033759944") format("woff"), url("//at.alicdn.com/t/font_1031158_u69w8yhxdu.ttf?t=1630033759944") format("truetype"); }
</style></defs><path d="M415.999819 864.000181c-17.695956 0-31.999819-14.303864-31.999819-31.99982V192.000361c0-17.695956 14.303864-32.000542 31.999819-32.000542s31.999819 14.304586 31.99982 32.000542v640c0 17.695956-14.303864 31.999819-31.99982 31.99982zM287.999819 864.000181c-17.695956 0-31.999819-14.303864-31.999819-31.99982V287.999819c0-17.695233 14.303864-31.999819 31.999819-31.999819s32.000542 14.304586 32.000542 31.999819v544.000542c0 17.695956-14.304586 31.999819-32.000542 31.99982zM543.999819 832.000361c-17.695956 0-31.999819-14.304586-31.999819-32.000542V192.000361c0-17.695956 14.303864-32.000542 31.999819-32.000542s32.000542 14.304586 32.000542 32.000542v607.999458c0 17.695956-14.304586 32.000542-32.000542 32.000542zM159.999819 864.000181c-17.695956 0-31.999819-14.303864-31.999819-31.99982V416.000542c0-17.695956 14.303864-32.000542 31.999819-32.000542s32.000542 14.304586 32.000542 32.000542v415.999819c0 17.695956-14.304586 31.999819-32.000542 31.99982zM31.999819 799.999819C14.303864 799.999819 0 785.695956 0 768V543.999819c0-17.695233 14.303864-31.999819 31.999819-31.999819s32.000542 14.304586 32.000542 31.999819v224.000181c0 17.695956-14.304586 31.999819-32.000542 31.999819z" p-id="2816" fill="#bfbfbf"></path><path d="M832.000361 864.000181H543.999819c-17.695956 0-31.999819-14.303864-31.999819-31.99982s14.303864-32.000542 31.999819-32.000542h288.000542c17.695233 0 31.999819 14.304586 31.99982 32.000542s-14.304586 31.999819-31.99982 31.99982z" p-id="2817" fill="#bfbfbf"></path><path d="M832.000361 864.000181c-17.695956 0-32.000542-14.303864-32.000542-31.99982s14.304586-32.000542 32.000542-32.000542c70.591641 0 127.999278-57.407637 127.999278-127.999277 0-70.592363-57.407637-128.000722-127.999278-128.000723-17.695956 0-32.000542-14.303864-32.000542-31.999819s14.304586-31.999819 32.000542-31.999819c105.888183 0 191.999639 86.112178 191.999639 192.000361s-86.111455 191.999639-191.999639 191.999639z" p-id="2818" fill="#bfbfbf"></path><path d="M832.000361 512c-17.695956 0-32.000542-14.303864-32.000542-31.999819 0-141.152214-114.847786-256-256-256-17.695956 0-31.999819-14.304586-31.999819-31.99982 0-17.695956 14.303864-32.000542 31.999819-32.000542 176.448757 0 320.000361 143.552327 320.000362 320.000362 0 17.695956-14.304586 31.999819-31.99982 31.999819z" p-id="2819" fill="#bfbfbf"></path><path d="M832.000361 543.999819c-17.695956 0-32.000542-14.303864-32.000542-31.999819v-31.999819c0-17.695956 14.304586-31.999819 32.000542-31.99982 17.695233 0 31.999819 14.303864 31.99982 31.99982v31.999819c0 17.695956-14.304586 31.999819-31.99982 31.999819z" p-id="2820" fill="#bfbfbf"></path></svg>